<svg width="210" height="150" viewBox="0 0 210 150" fill="none" xmlns="http://www.w3.org/2000/svg">
<rect x="3" y="3" width="144" height="144" fill="white" stroke="#6EA6BE" stroke-width="6"/>
<ellipse cx="110.5" cy="44" rx="11.5" ry="13" fill="#6EA6BE" fill-opacity="0.5"/>
<path d="M43.5 108.55C39.8 108.55 36.8667 107.533 34.7 105.5C32.5667 103.433 31.5 100.667 31.5 97.2H37.75C37.75 99.0333 38.2667 100.467 39.3 101.5C40.3333 102.533 41.7333 103.05 43.5 103.05C45.2667 103.05 46.6667 102.55 47.7 101.55C48.7333 100.517 49.25 99.0833 49.25 97.25V77.3H40.75V71.5H55.5V97.25C55.5 100.75 54.4167 103.517 52.25 105.55C50.1167 107.55 47.2 108.55 43.5 108.55ZM61.7305 108L70.9305 71.5H78.9805L88.2305 108H81.8305L79.8305 99.15H70.1305L68.1305 108H61.7305ZM71.2805 94.05H78.6805L76.4805 84.25C76.1138 82.6167 75.7971 81.15 75.5305 79.85C75.2638 78.5167 75.0805 77.55 74.9805 76.95C74.8805 77.55 74.6971 78.5167 74.4305 79.85C74.1971 81.15 73.8805 82.6 73.4805 84.2L71.2805 94.05ZM93.8109 108V71.5H105.011C108.544 71.5 111.344 72.35 113.411 74.05C115.478 75.7167 116.511 78 116.511 80.9C116.511 82.5333 116.144 83.95 115.411 85.15C114.678 86.35 113.678 87.2833 112.411 87.95C111.178 88.6167 109.744 88.95 108.111 88.95V88.75C109.878 88.7167 111.444 89.05 112.811 89.75C114.211 90.4167 115.311 91.4167 116.111 92.75C116.944 94.0833 117.361 95.7 117.361 97.6C117.361 99.7 116.878 101.533 115.911 103.1C114.944 104.667 113.578 105.883 111.811 106.75C110.078 107.583 107.994 108 105.561 108H93.8109ZM99.9109 102.8H105.161C106.994 102.8 108.428 102.317 109.461 101.35C110.528 100.35 111.061 99 111.061 97.3C111.061 95.6 110.528 94.2333 109.461 93.2C108.428 92.1333 106.994 91.6 105.161 91.6H99.9109V102.8ZM99.9109 86.55H104.911C106.578 86.55 107.878 86.1167 108.811 85.25C109.778 84.35 110.261 83.1333 110.261 81.6C110.261 80.0667 109.778 78.8667 108.811 78C107.878 77.1333 106.578 76.7 104.911 76.7H99.9109V86.55ZM123.791 108V71.5H134.991C138.525 71.5 141.325 72.35 143.391 74.05C145.458 75.7167 146.491 78 146.491 80.9C146.491 82.5333 146.125 83.95 145.391 85.15C144.658 86.35 143.658 87.2833 142.391 87.95C141.158 88.6167 139.725 88.95 138.091 88.95V88.75C139.858 88.7167 141.425 89.05 142.791 89.75C144.191 90.4167 145.291 91.4167 146.091 92.75C146.925 94.0833 147.341 95.7 147.341 97.6C147.341 99.7 146.858 101.533 145.891 103.1C144.925 104.667 143.558 105.883 141.791 106.75C140.058 107.583 137.975 108 135.541 108H123.791ZM129.891 102.8H135.141C136.975 102.8 138.408 102.317 139.441 101.35C140.508 100.35 141.041 99 141.041 97.3C141.041 95.6 140.508 94.2333 139.441 93.2C138.408 92.1333 136.975 91.6 135.141 91.6H129.891V102.8ZM129.891 86.55H134.891C136.558 86.55 137.858 86.1167 138.791 85.25C139.758 84.35 140.241 83.1333 140.241 81.6C140.241 80.0667 139.758 78.8667 138.791 78C137.858 77.1333 136.558 76.7 134.891 76.7H129.891V86.55ZM154.322 108V71.5H176.222V76.95H160.472V86.45H174.472V91.85H160.472V102.55H176.222V108H154.322ZM183.702 108V71.5H195.252C197.686 71.5 199.786 71.95 201.552 72.85C203.352 73.75 204.752 75.0167 205.752 76.65C206.752 78.25 207.252 80.15 207.252 82.35C207.252 84.75 206.636 86.8667 205.402 88.7C204.202 90.5333 202.569 91.8333 200.502 92.6L207.752 108H200.752L194.402 93.5H189.952V108H183.702ZM189.952 88H195.252C197.019 88 198.402 87.5167 199.402 86.55C200.402 85.5833 200.902 84.25 200.902 82.55C200.902 80.8167 200.402 79.4667 199.402 78.5C198.402 77.5 197.019 77 195.252 77H189.952V88Z" fill="black"/>
</svg>
